<?xml version="1.0" encoding="UTF-8" standalone="no"?>
<!DOCTYPE svg PUBLIC "-//W3C//DTD SVG 1.1//EN"
 "http://www.w3.org/Graphics/SVG/1.1/DTD/svg11.dtd">
<!-- Generated by graphviz version 2.43.0 (0)
 -->
<!-- Title: classes_output Pages: 1 -->
<svg width="356pt" height="259pt"
 viewBox="0.00 0.00 356.00 259.00" xmlns="http://www.w3.org/2000/svg" xmlns:xlink="http://www.w3.org/1999/xlink">
<g id="graph0" class="graph" transform="scale(1 1) rotate(0) translate(4 255)">
<title>classes_output</title>
<polygon fill="white" stroke="transparent" points="-4,4 -4,-255 352,-255 352,4 -4,4"/>
<!-- output._types.ClassRoom -->
<g id="node1" class="node">
<title>output._types.ClassRoom</title>
<polygon fill="none" stroke="black" points="46.5,-14.6 46.5,-85.4 141.5,-85.4 141.5,-14.6 46.5,-14.6"/>
<text text-anchor="start" x="54.5" y="-70.2" font-family="Times,serif" font-size="14.00">ClassRoom</text>
<polyline fill="none" stroke="black" points="46.5,-62.4 141.5,-62.4 "/>
<polyline fill="none" stroke="black" points="46.5,-37.6 141.5,-37.6 "/>
<text text-anchor="start" x="91.5" y="-22.4" font-family="Times,serif" font-size="14.00"> </text>
</g>
<!-- output.student.Student -->
<g id="node2" class="node">
<title>output.student.Student</title>
<polygon fill="none" stroke="black" points="0,-151.5 0,-250.5 188,-250.5 188,-151.5 0,-151.5"/>
<text text-anchor="start" x="65" y="-235.3" font-family="Times,serif" font-size="14.00">Student</text>
<polyline fill="none" stroke="black" points="0,-227.5 188,-227.5 "/>
<text text-anchor="start" x="8" y="-212.3" font-family="Times,serif" font-size="14.00">age : int</text>
<text text-anchor="start" x="8" y="-197.3" font-family="Times,serif" font-size="14.00">class_room : ClassRoom</text>
<text text-anchor="start" x="8" y="-182.3" font-family="Times,serif" font-size="14.00">name : str</text>
<polyline fill="none" stroke="black" points="0,-174.5 188,-174.5 "/>
<text text-anchor="start" x="91.5" y="-159.3" font-family="Times,serif" font-size="14.00"> </text>
</g>
<!-- output._types.ClassRoom&#45;&gt;output.student.Student -->
<g id="edge1" class="edge">
<title>output._types.ClassRoom&#45;&gt;output.student.Student</title>
<path fill="none" stroke="black" d="M94,-85.56C94,-101.49 94,-120.88 94,-139.14"/>
<polygon fill="black" stroke="black" points="94,-139.24 98,-145.24 94,-151.24 90,-145.24 94,-139.24"/>
<text text-anchor="middle" x="133.5" y="-121.8" font-family="Times,serif" font-size="14.00" fill="green">class_room</text>
</g>
<!-- output._types.Student -->
<g id="node3" class="node">
<title>output._types.Student</title>
<polygon fill="none" stroke="black" points="160,-0.5 160,-99.5 348,-99.5 348,-0.5 160,-0.5"/>
<text text-anchor="start" x="225" y="-84.3" font-family="Times,serif" font-size="14.00">Student</text>
<polyline fill="none" stroke="black" points="160,-76.5 348,-76.5 "/>
<text text-anchor="start" x="168" y="-61.3" font-family="Times,serif" font-size="14.00">age : int</text>
<text text-anchor="start" x="168" y="-46.3" font-family="Times,serif" font-size="14.00">class_room : ClassRoom</text>
<text text-anchor="start" x="168" y="-31.3" font-family="Times,serif" font-size="14.00">name : str</text>
<polyline fill="none" stroke="black" points="160,-23.5 348,-23.5 "/>
<text text-anchor="start" x="251.5" y="-8.3" font-family="Times,serif" font-size="14.00"> </text>
</g>
</g>
</svg>
