<?xml version="1.0" encoding="UTF-8" standalone="no"?>
<!DOCTYPE svg PUBLIC "-//W3C//DTD SVG 1.1//EN"
 "http://www.w3.org/Graphics/SVG/1.1/DTD/svg11.dtd">
<!-- Generated by graphviz version 2.43.0 (0)
 -->
<!-- Title: packages_output Pages: 1 -->
<svg width="677pt" height="188pt"
 viewBox="0.00 0.00 677.00 188.00" xmlns="http://www.w3.org/2000/svg" xmlns:xlink="http://www.w3.org/1999/xlink">
<g id="graph0" class="graph" transform="scale(1 1) rotate(0) translate(4 184)">
<title>packages_output</title>
<polygon fill="white" stroke="transparent" points="-4,4 -4,-184 673,-184 673,4 -4,4"/>
<!-- output -->
<g id="node1" class="node">
<title>output</title>
<polygon fill="none" stroke="black" points="64,-36 0,-36 0,0 64,0 64,-36"/>
<text text-anchor="middle" x="32" y="-14.3" font-family="Times,serif" font-size="14.00">output</text>
</g>
<!-- output._types -->
<g id="node2" class="node">
<title>output._types</title>
<polygon fill="none" stroke="black" points="343,-180 229,-180 229,-144 343,-144 343,-180"/>
<text text-anchor="middle" x="286" y="-158.3" font-family="Times,serif" font-size="14.00">output._types</text>
</g>
<!-- output.conftest -->
<g id="node3" class="node">
<title>output.conftest</title>
<polygon fill="none" stroke="black" points="669,-36 543,-36 543,0 669,0 669,-36"/>
<text text-anchor="middle" x="606" y="-14.3" font-family="Times,serif" font-size="14.00">output.conftest</text>
</g>
<!-- output.student -->
<g id="node4" class="node">
<title>output.student</title>
<polygon fill="none" stroke="black" points="347.5,-108 224.5,-108 224.5,-72 347.5,-72 347.5,-108"/>
<text text-anchor="middle" x="286" y="-86.3" font-family="Times,serif" font-size="14.00">output.student</text>
</g>
<!-- output.student&#45;&gt;output._types -->
<g id="edge1" class="edge">
<title>output.student&#45;&gt;output._types</title>
<path fill="none" stroke="black" d="M286,-108.3C286,-116.02 286,-125.29 286,-133.89"/>
<polygon fill="black" stroke="black" points="286,-143.9 281.5,-133.9 286,-138.9 286,-133.9 286,-133.9 286,-133.9 286,-138.9 290.5,-133.9 286,-143.9 286,-143.9"/>
</g>
<!-- output.test_io_student -->
<g id="node5" class="node">
<title>output.test_io_student</title>
<polygon fill="none" stroke="black" points="259.5,-36 82.5,-36 82.5,0 259.5,0 259.5,-36"/>
<text text-anchor="middle" x="171" y="-14.3" font-family="Times,serif" font-size="14.00">output.test_io_student</text>
</g>
<!-- output.test_io_student&#45;&gt;output.student -->
<g id="edge2" class="edge">
<title>output.test_io_student&#45;&gt;output.student</title>
<path fill="none" stroke="black" d="M199.13,-36.12C214.17,-45.28 232.87,-56.66 249.06,-66.52"/>
<polygon fill="black" stroke="black" points="257.76,-71.81 246.88,-70.45 253.49,-69.21 249.22,-66.61 249.22,-66.61 249.22,-66.61 253.49,-69.21 251.56,-62.77 257.76,-71.81 257.76,-71.81"/>
</g>
<!-- output.test_side_effects_student -->
<g id="node6" class="node">
<title>output.test_side_effects_student</title>
<polygon fill="none" stroke="black" points="525,-36 277,-36 277,0 525,0 525,-36"/>
<text text-anchor="middle" x="401" y="-14.3" font-family="Times,serif" font-size="14.00">output.test_side_effects_student</text>
</g>
<!-- output.test_side_effects_student&#45;&gt;output.student -->
<g id="edge3" class="edge">
<title>output.test_side_effects_student&#45;&gt;output.student</title>
<path fill="none" stroke="black" d="M372.87,-36.12C357.83,-45.28 339.13,-56.66 322.94,-66.52"/>
<polygon fill="black" stroke="black" points="314.24,-71.81 320.44,-62.77 318.51,-69.21 322.78,-66.61 322.78,-66.61 322.78,-66.61 318.51,-69.21 325.12,-70.45 314.24,-71.81 314.24,-71.81"/>
</g>
</g>
</svg>
